<svg height="2510" width="720" xmlns="http://www.w3.org/2000/svg">
<rect height="2510" fill="#555" width="720"></rect>
<text fill="#7f7" font-family="Courier New" font-size="12" xml:space="preserve">
<tspan x="10" y="26">26 megabytes</tspan>
<tspan x="10" y="42">└─┬ react-server-example@1.2.6 </tspan>
<tspan x="10" y="58">  ├─┬ browserify@14.3.0 </tspan>
<tspan x="10" y="74">  │ ├── assert@1.4.1 </tspan>
<tspan x="10" y="90">  │ ├─┬ browser-pack@6.0.2 </tspan>
<tspan x="10" y="106">  │ │ ├─┬ combine-source-map@0.7.2 </tspan>
<tspan x="10" y="122">  │ │ │ ├── convert-source-map@1.1.3 </tspan>
<tspan x="10" y="138">  │ │ │ ├── inline-source-map@0.6.2 </tspan>
<tspan x="10" y="154">  │ │ │ ├── lodash.memoize@3.0.4 </tspan>
<tspan x="10" y="170">  │ │ │ └── source-map@0.5.6 </tspan>
<tspan x="10" y="186">  │ │ └── umd@3.0.1 </tspan>
<tspan x="10" y="202">  │ ├─┬ browser-resolve@1.11.2 </tspan>
<tspan x="10" y="218">  │ │ └── resolve@1.1.7 </tspan>
<tspan x="10" y="234">  │ ├─┬ browserify-zlib@0.1.4 </tspan>
<tspan x="10" y="250">  │ │ └── pako@0.2.9 </tspan>
<tspan x="10" y="266">  │ ├─┬ buffer@5.0.6 </tspan>
<tspan x="10" y="282">  │ │ ├── base64-js@1.2.0 </tspan>
<tspan x="10" y="298">  │ │ └── ieee754@1.1.8 </tspan>
<tspan x="10" y="314">  │ ├── cached-path-relative@1.0.1 </tspan>
<tspan x="10" y="330">  │ ├─┬ concat-stream@1.5.2 </tspan>
<tspan x="10" y="346">  │ │ ├── readable-stream@2.0.6 </tspan>
<tspan x="10" y="362">  │ │ └── typedarray@0.0.6 </tspan>
<tspan x="10" y="378">  │ ├─┬ console-browserify@1.1.0 </tspan>
<tspan x="10" y="394">  │ │ └── date-now@0.1.4 </tspan>
<tspan x="10" y="410">  │ ├── constants-browserify@1.0.0 </tspan>
<tspan x="10" y="426">  │ ├─┬ crypto-browserify@3.11.0 </tspan>
<tspan x="10" y="442">  │ │ ├─┬ browserify-cipher@1.0.0 </tspan>
<tspan x="10" y="458">  │ │ │ ├─┬ browserify-aes@1.0.6 </tspan>
<tspan x="10" y="474">  │ │ │ │ └── buffer-xor@1.0.3 </tspan>
<tspan x="10" y="490">  │ │ │ ├─┬ browserify-des@1.0.0 </tspan>
<tspan x="10" y="506">  │ │ │ │ └── des.js@1.0.0 </tspan>
<tspan x="10" y="522">  │ │ │ └── evp_bytestokey@1.0.0 </tspan>
<tspan x="10" y="538">  │ │ ├─┬ browserify-sign@4.0.4 </tspan>
<tspan x="10" y="554">  │ │ │ ├── bn.js@4.11.6 </tspan>
<tspan x="10" y="570">  │ │ │ ├── browserify-rsa@4.0.1 </tspan>
<tspan x="10" y="586">  │ │ │ ├─┬ elliptic@6.4.0 </tspan>
<tspan x="10" y="602">  │ │ │ │ ├── brorand@1.1.0 </tspan>
<tspan x="10" y="618">  │ │ │ │ ├── hash.js@1.0.3 </tspan>
<tspan x="10" y="634">  │ │ │ │ ├── hmac-drbg@1.0.0 </tspan>
<tspan x="10" y="650">  │ │ │ │ ├── minimalistic-assert@1.0.0 </tspan>
<tspan x="10" y="666">  │ │ │ │ └── minimalistic-crypto-utils@1.0.1 </tspan>
<tspan x="10" y="682">  │ │ │ └─┬ parse-asn1@5.1.0 </tspan>
<tspan x="10" y="698">  │ │ │   └── asn1.js@4.9.1 </tspan>
<tspan x="10" y="714">  │ │ ├── create-ecdh@4.0.0 </tspan>
<tspan x="10" y="730">  │ │ ├─┬ create-hash@1.1.2 </tspan>
<tspan x="10" y="746">  │ │ │ ├── cipher-base@1.0.3 </tspan>
<tspan x="10" y="762">  │ │ │ └── ripemd160@1.0.1 </tspan>
<tspan x="10" y="778">  │ │ ├── create-hmac@1.1.4 </tspan>
<tspan x="10" y="794">  │ │ ├─┬ diffie-hellman@5.0.2 </tspan>
<tspan x="10" y="810">  │ │ │ └── miller-rabin@4.0.0 </tspan>
<tspan x="10" y="826">  │ │ ├── pbkdf2@3.0.9 </tspan>
<tspan x="10" y="842">  │ │ ├── public-encrypt@4.0.0 </tspan>
<tspan x="10" y="858">  │ │ └── randombytes@2.0.3 </tspan>
<tspan x="10" y="874">  │ ├── defined@1.0.0 </tspan>
<tspan x="10" y="890">  │ ├── deps-sort@2.0.0 </tspan>
<tspan x="10" y="906">  │ ├── domain-browser@1.1.7 </tspan>
<tspan x="10" y="922">  │ ├── duplexer2@0.1.4 </tspan>
<tspan x="10" y="938">  │ ├── events@1.1.1 </tspan>
<tspan x="10" y="954">  │ ├─┬ glob@7.1.1 </tspan>
<tspan x="10" y="970">  │ │ ├── fs.realpath@1.0.0 </tspan>
<tspan x="10" y="986">  │ │ ├─┬ inflight@1.0.6 </tspan>
<tspan x="10" y="1002">  │ │ │ └── wrappy@1.0.2 </tspan>
<tspan x="10" y="1018">  │ │ ├─┬ minimatch@3.0.3 </tspan>
<tspan x="10" y="1034">  │ │ │ └─┬ brace-expansion@1.1.7 </tspan>
<tspan x="10" y="1050">  │ │ │   ├── balanced-match@0.4.2 </tspan>
<tspan x="10" y="1066">  │ │ │   └── concat-map@0.0.1 </tspan>
<tspan x="10" y="1082">  │ │ ├── once@1.4.0 </tspan>
<tspan x="10" y="1098">  │ │ └── path-is-absolute@1.0.1 </tspan>
<tspan x="10" y="1114">  │ ├─┬ has@1.0.1 </tspan>
<tspan x="10" y="1130">  │ │ └── function-bind@1.1.0 </tspan>
<tspan x="10" y="1146">  │ ├── htmlescape@1.1.1 </tspan>
<tspan x="10" y="1162">  │ ├── https-browserify@1.0.0 </tspan>
<tspan x="10" y="1178">  │ ├── inherits@2.0.3 </tspan>
<tspan x="10" y="1194">  │ ├─┬ insert-module-globals@7.0.1 </tspan>
<tspan x="10" y="1210">  │ │ ├── is-buffer@1.1.5 </tspan>
<tspan x="10" y="1226">  │ │ └─┬ lexical-scope@1.2.0 </tspan>
<tspan x="10" y="1242">  │ │   └── astw@2.2.0 </tspan>
<tspan x="10" y="1258">  │ ├─┬ JSONStream@1.3.1 </tspan>
<tspan x="10" y="1274">  │ │ ├── jsonparse@1.3.0 </tspan>
<tspan x="10" y="1290">  │ │ └── through@2.3.8 </tspan>
<tspan x="10" y="1306">  │ ├─┬ labeled-stream-splicer@2.0.0 </tspan>
<tspan x="10" y="1322">  │ │ ├── isarray@0.0.1 </tspan>
<tspan x="10" y="1338">  │ │ └── stream-splicer@2.0.0 </tspan>
<tspan x="10" y="1354">  │ ├─┬ module-deps@4.1.1 </tspan>
<tspan x="10" y="1370">  │ │ ├── detective@4.5.0 </tspan>
<tspan x="10" y="1386">  │ │ └── stream-combiner2@1.1.1 </tspan>
<tspan x="10" y="1402">  │ ├── os-browserify@0.1.2 </tspan>
<tspan x="10" y="1418">  │ ├─┬ parents@1.0.1 </tspan>
<tspan x="10" y="1434">  │ │ └── path-platform@0.11.15 </tspan>
<tspan x="10" y="1450">  │ ├── path-browserify@0.0.0 </tspan>
<tspan x="10" y="1466">  │ ├── process@0.11.9 </tspan>
<tspan x="10" y="1482">  │ ├── punycode@1.4.1 </tspan>
<tspan x="10" y="1498">  │ ├── querystring-es3@0.2.1 </tspan>
<tspan x="10" y="1514">  │ ├── read-only-stream@2.0.0 </tspan>
<tspan x="10" y="1530">  │ ├─┬ readable-stream@2.2.7 </tspan>
<tspan x="10" y="1546">  │ │ ├── buffer-shims@1.0.0 </tspan>
<tspan x="10" y="1562">  │ │ ├── core-util-is@1.0.2 </tspan>
<tspan x="10" y="1578">  │ │ ├── isarray@1.0.0 </tspan>
<tspan x="10" y="1594">  │ │ ├── process-nextick-args@1.0.7 </tspan>
<tspan x="10" y="1610">  │ │ ├── string_decoder@1.0.0 </tspan>
<tspan x="10" y="1626">  │ │ └── util-deprecate@1.0.2 </tspan>
<tspan x="10" y="1642">  │ ├─┬ resolve@1.3.2 </tspan>
<tspan x="10" y="1658">  │ │ └── path-parse@1.0.5 </tspan>
<tspan x="10" y="1674">  │ ├─┬ shasum@1.0.2 </tspan>
<tspan x="10" y="1690">  │ │ ├── json-stable-stringify@0.0.1 </tspan>
<tspan x="10" y="1706">  │ │ └── sha.js@2.4.8 </tspan>
<tspan x="10" y="1722">  │ ├─┬ shell-quote@1.6.1 </tspan>
<tspan x="10" y="1738">  │ │ ├── array-filter@0.0.1 </tspan>
<tspan x="10" y="1754">  │ │ ├── array-map@0.0.0 </tspan>
<tspan x="10" y="1770">  │ │ ├── array-reduce@0.0.0 </tspan>
<tspan x="10" y="1786">  │ │ └── jsonify@0.0.0 </tspan>
<tspan x="10" y="1802">  │ ├── stream-browserify@2.0.1 </tspan>
<tspan x="10" y="1818">  │ ├─┬ stream-http@2.7.0 </tspan>
<tspan x="10" y="1834">  │ │ ├── builtin-status-codes@3.0.0 </tspan>
<tspan x="10" y="1850">  │ │ └── to-arraybuffer@1.0.1 </tspan>
<tspan x="10" y="1866">  │ ├── string_decoder@0.10.31 </tspan>
<tspan x="10" y="1882">  │ ├─┬ subarg@1.0.0 </tspan>
<tspan x="10" y="1898">  │ │ └── minimist@1.2.0 </tspan>
<tspan x="10" y="1914">  │ ├─┬ syntax-error@1.3.0 </tspan>
<tspan x="10" y="1930">  │ │ └── acorn@4.0.11 </tspan>
<tspan x="10" y="1946">  │ ├── through2@2.0.3 </tspan>
<tspan x="10" y="1962">  │ ├── timers-browserify@1.4.2 </tspan>
<tspan x="10" y="1978">  │ ├── tty-browserify@0.0.0 </tspan>
<tspan x="10" y="1994">  │ ├─┬ url@0.11.0 </tspan>
<tspan x="10" y="2010">  │ │ ├── punycode@1.3.2 </tspan>
<tspan x="10" y="2026">  │ │ └── querystring@0.2.0 </tspan>
<tspan x="10" y="2042">  │ ├─┬ util@0.10.3 </tspan>
<tspan x="10" y="2058">  │ │ └── inherits@2.0.1 </tspan>
<tspan x="10" y="2074">  │ ├─┬ vm-browserify@0.0.4 </tspan>
<tspan x="10" y="2090">  │ │ └── indexof@0.0.1 </tspan>
<tspan x="10" y="2106">  │ └── xtend@4.0.1 </tspan>
<tspan x="10" y="2122">  ├─┬ literalify@0.4.0 </tspan>
<tspan x="10" y="2138">  │ └─┬ browserify-transform-tools@1.7.0 </tspan>
<tspan x="10" y="2154">  │   └─┬ falafel@2.1.0 </tspan>
<tspan x="10" y="2170">  │     ├── acorn@5.0.3 </tspan>
<tspan x="10" y="2186">  │     ├── foreach@2.0.5 </tspan>
<tspan x="10" y="2202">  │     ├── isarray@0.0.1 </tspan>
<tspan x="10" y="2218">  │     └── object-keys@1.0.11 </tspan>
<tspan x="10" y="2234">  ├─┬ react@15.4.2 </tspan>
<tspan x="10" y="2250">  │ ├─┬ fbjs@0.8.12 </tspan>
<tspan x="10" y="2266">  │ │ ├── core-js@1.2.7 </tspan>
<tspan x="10" y="2282">  │ │ ├─┬ isomorphic-fetch@2.2.1 </tspan>
<tspan x="10" y="2298">  │ │ │ ├─┬ node-fetch@1.6.3 </tspan>
<tspan x="10" y="2314">  │ │ │ │ ├─┬ encoding@0.1.12 </tspan>
<tspan x="10" y="2330">  │ │ │ │ │ └── iconv-lite@0.4.15 </tspan>
<tspan x="10" y="2346">  │ │ │ │ └── is-stream@1.1.0 </tspan>
<tspan x="10" y="2362">  │ │ │ └── whatwg-fetch@2.0.3 </tspan>
<tspan x="10" y="2378">  │ │ ├─┬ promise@7.1.1 </tspan>
<tspan x="10" y="2394">  │ │ │ └── asap@2.0.5 </tspan>
<tspan x="10" y="2410">  │ │ ├── setimmediate@1.0.5 </tspan>
<tspan x="10" y="2426">  │ │ └── ua-parser-js@0.7.12 </tspan>
<tspan x="10" y="2442">  │ ├─┬ loose-envify@1.3.1 </tspan>
<tspan x="10" y="2458">  │ │ └── js-tokens@3.0.1 </tspan>
<tspan x="10" y="2474">  │ └── object-assign@4.1.1 </tspan>
<tspan x="10" y="2490">  └── react-dom@15.4.2</tspan>
</text>
</svg>
